<svg width="127" height="141" viewBox="0 0 127 141" fill="none" xmlns="http://www.w3.org/2000/svg">
<path d="M63.2505 103.575C58.6241 103.577 54.1737 105.348 50.8105 108.525L35.9704 99.985C37.0342 95.5571 36.3897 90.8909 34.1655 86.9171C31.9413 82.9432 28.301 79.9538 23.9704 78.545V61.155C28.2491 59.755 31.8555 56.8165 34.091 52.9089C36.3266 49.0014 37.0321 44.403 36.0705 40.0051L51.1704 31.285C54.189 34.2032 58.1236 35.9881 62.3076 36.337C66.4916 36.686 70.6676 35.5777 74.1279 33.1998C77.5882 30.822 80.12 27.3209 81.2942 23.2899C82.4683 19.2589 82.2129 14.9459 80.5708 11.0818C78.9287 7.21769 76.0011 4.04018 72.2842 2.08771C68.5672 0.135234 64.2895 -0.472079 60.176 0.368651C56.0625 1.20938 52.3661 3.44648 49.7134 6.7008C47.0606 9.95513 45.6146 14.0265 45.6203 18.225C45.6233 19.6232 45.7912 21.0162 46.1203 22.3751L31.1203 31.0051C29.1434 29.0177 26.7343 27.5135 24.0808 26.6097C21.4272 25.706 18.601 25.4271 15.822 25.7947C13.043 26.1623 10.3863 27.1665 8.05906 28.7292C5.73178 30.2918 3.79668 32.3707 2.40452 34.8038C1.01235 37.2369 0.200587 39.9585 0.0326906 42.7567C-0.135206 45.5549 0.345254 48.3541 1.4365 50.9362C2.52774 53.5183 4.20046 55.8137 6.32419 57.6434C8.44793 59.4731 10.9653 60.7878 13.6804 61.485V78.205C10.9879 78.9118 8.4935 80.2268 6.38889 82.0488C4.28428 83.8708 2.62552 86.1513 1.5405 88.7148C0.455485 91.2784 -0.0270234 94.0567 0.130103 96.836C0.287229 99.6153 1.07996 102.322 2.447 104.746C3.81404 107.171 5.71904 109.25 8.0156 110.824C10.3122 112.397 12.9391 113.422 15.6941 113.821C18.4491 114.22 21.2588 113.981 23.9072 113.124C26.5556 112.266 28.9719 110.813 30.9704 108.875L45.6504 117.355C45.2764 118.806 45.0851 120.297 45.0805 121.795C45.0805 125.399 46.1494 128.922 48.1518 131.919C50.1543 134.915 53.0004 137.25 56.3303 138.629C59.6602 140.008 63.324 140.368 66.8586 139.664C70.3932 138.96 73.6398 137.224 76.1875 134.675C78.7352 132.126 80.4697 128.878 81.1716 125.343C81.8735 121.808 81.5112 118.145 80.1306 114.816C78.75 111.487 76.4133 108.642 73.4157 106.641C70.4182 104.64 66.8945 103.573 63.2905 103.575H63.2505ZM63.8305 9.11505C65.6323 9.11505 67.3934 9.64931 68.8916 10.6503C70.3897 11.6513 71.5575 13.0742 72.247 14.7388C72.9366 16.4035 73.1169 18.2352 72.7654 20.0023C72.4138 21.7695 71.5463 23.3928 70.2722 24.6668C68.9981 25.9409 67.3748 26.8085 65.6076 27.16C63.8405 27.5115 62.0089 27.3311 60.3442 26.6416C58.6796 25.9521 57.2569 24.7844 56.2558 23.2863C55.2548 21.7882 54.7204 20.0268 54.7204 18.225C54.7204 15.8089 55.6802 13.4918 57.3886 11.7833C59.0971 10.0749 61.4144 9.11505 63.8305 9.11505V9.11505ZM9.16038 43.8651C9.16038 42.0628 9.69505 40.3011 10.6965 38.8027C11.698 37.3044 13.1214 36.1368 14.7866 35.4476C16.4518 34.7584 18.284 34.5785 20.0515 34.9308C21.8189 35.2832 23.4421 36.1518 24.7158 37.4268C25.9895 38.7019 26.8561 40.3261 27.2065 42.0939C27.5569 43.8618 27.3751 45.6938 26.6841 47.3582C25.993 49.0227 24.8239 50.4448 23.3244 51.4446C21.825 52.4444 20.0627 52.977 18.2605 52.975C15.8469 52.9697 13.5338 52.008 11.8281 50.3004C10.1224 48.5928 9.16302 46.2786 9.16038 43.8651V43.8651ZM18.2605 104.925C16.4587 104.925 14.6973 104.391 13.1992 103.39C11.7011 102.389 10.5335 100.966 9.84397 99.3013C9.15446 97.6366 8.9739 95.8049 9.32542 94.0378C9.67693 92.2706 10.5445 90.6473 11.8186 89.3733C13.0926 88.0992 14.716 87.2316 16.4831 86.8801C18.2503 86.5286 20.0822 86.709 21.7468 87.3985C23.4114 88.088 24.8342 89.2557 25.8352 90.7538C26.8362 92.2519 27.3703 94.0133 27.3703 95.8151C27.3677 98.2304 26.4071 100.546 24.6992 102.254C22.9913 103.962 20.6758 104.922 18.2605 104.925V104.925ZM63.2605 130.925C61.4583 130.925 59.6966 130.391 58.1982 129.389C56.6999 128.388 55.5322 126.964 54.843 125.299C54.1538 123.634 53.9738 121.802 54.3261 120.034C54.6785 118.267 55.5472 116.643 56.8222 115.37C58.0973 114.096 59.7214 113.229 61.4892 112.879C63.2571 112.528 65.0892 112.71 66.7536 113.401C68.4181 114.092 69.8402 115.262 70.8401 116.761C71.8399 118.261 72.3723 120.023 72.3703 121.825C72.3598 124.236 71.394 126.544 69.6845 128.245C67.9751 129.945 65.6614 130.898 63.2505 130.895L63.2605 130.925ZM113.97 78.525V61.155C117.351 60.0553 120.336 57.993 122.562 55.2209C124.787 52.4488 126.154 49.0876 126.496 45.5496C126.839 42.0115 126.141 38.4505 124.489 35.3032C122.836 32.156 120.301 29.5594 117.195 27.832C114.088 26.1046 110.545 25.3215 107 25.5788C103.454 25.8361 100.061 27.1225 97.2365 29.2803C94.4118 31.4381 92.2785 34.3734 91.0979 37.7262C89.9173 41.079 89.741 44.7035 90.5906 48.155L75.5906 56.845C72.5535 53.9591 68.6131 52.21 64.4355 51.8933C60.258 51.5766 56.0993 52.7116 52.6618 55.1067C49.2244 57.5017 46.719 61.01 45.5691 65.0386C44.4192 69.0673 44.695 73.3694 46.3503 77.2181C48.0056 81.0668 50.9387 84.2261 54.654 86.1622C58.3694 88.0984 62.6393 88.6928 66.7422 87.8448C70.845 86.9968 74.5294 84.7585 77.1728 81.5082C79.8162 78.2578 81.2565 74.1946 81.2505 70.0051C81.2431 68.5592 81.0651 67.1192 80.7204 65.715L95.7204 57.025C97.9606 59.173 100.715 60.7088 103.72 61.485V78.205C99.4859 79.3068 95.7904 81.8981 93.3115 85.5037C90.8326 89.1093 89.7365 93.4877 90.2241 97.8359C90.7117 102.184 92.7504 106.211 95.9663 109.178C99.1822 112.145 103.36 113.854 107.733 113.99C112.107 114.127 116.383 112.682 119.777 109.921C123.172 107.161 125.458 103.269 126.216 98.9596C126.974 94.6502 126.153 90.212 123.904 86.4588C121.655 82.7056 118.128 79.8888 113.97 78.525V78.525ZM62.9704 79.1151C61.1682 79.117 59.4059 78.5844 57.9065 77.5846C56.407 76.5848 55.2379 75.1627 54.5469 73.4982C53.8558 71.8338 53.6738 70.0017 54.0241 68.2339C54.3745 66.4661 55.2415 64.8419 56.5151 63.5668C57.7888 62.2918 59.412 61.4231 61.1794 61.0708C62.9469 60.7185 64.7791 60.8983 66.4443 61.5875C68.1095 62.2767 69.5329 63.4444 70.5344 64.9427C71.5359 66.4411 72.0705 68.2029 72.0705 70.0051C72.0679 72.4186 71.1085 74.7328 69.4028 76.4404C67.6971 78.148 65.384 79.1098 62.9704 79.1151ZM99.1404 43.8651C99.1404 42.0628 99.675 40.3011 100.676 38.8027C101.678 37.3044 103.101 36.1368 104.767 35.4476C106.432 34.7584 108.264 34.5785 110.031 34.9308C111.799 35.2832 113.422 36.1518 114.696 37.4268C115.969 38.7019 116.836 40.3261 117.187 42.0939C117.537 43.8618 117.355 45.6938 116.664 47.3582C115.973 49.0227 114.804 50.4448 113.304 51.4446C111.805 52.4444 110.043 52.977 108.24 52.975C105.827 52.9697 103.514 52.008 101.808 50.3004C100.102 48.5928 99.143 46.2786 99.1404 43.8651ZM108.24 104.925C106.439 104.925 104.677 104.391 103.179 103.39C101.681 102.389 100.513 100.966 99.824 99.3013C99.1344 97.6366 98.9539 95.8049 99.3054 94.0378C99.6569 92.2706 100.525 90.6473 101.799 89.3733C103.073 88.0992 104.696 87.2316 106.463 86.8801C108.23 86.5286 110.062 86.709 111.727 87.3985C113.391 88.088 114.814 89.2557 115.815 90.7538C116.816 92.2519 117.35 94.0133 117.35 95.8151C117.348 98.2304 116.387 100.546 114.679 102.254C112.971 103.962 110.656 104.922 108.24 104.925V104.925Z" fill="#656775"/>
</svg>
